<svg width="100" height="100" viewBox="0 0 26 26">
  <circle fill="#999999" cx="13" cy="13" r="12" />
  <path
     style="fill:#0000ff;stroke:#000000;stroke-width:1;stroke-linecap:round"
     d="M 12.865979,4.9633449 C 14.065864,6.5973655 20.28,6.4000005 20.28,10.4 16.9,8.06 15.65945,9.2822053 13,8.06 c -2.603747,0.7912866 -3.64,0 -7.02,2.08 0,-3.9 5.998808,-3.5214432 6.885979,-5.1766551 z"
	/>
  <path
     style="fill:#000000;stroke-width:2.15884"
     d="m 11.252673,9.0420066 c 0,3.3807644 0,6.7615284 0,10.1422934 1.147135,0 2.294271,0 3.441406,0 0,-3.527778 0,-7.055556 0,-10.5833335 -1.147135,0 -2.294271,0 -3.441406,0 0,0.1470134 0,0.2940267 0,0.4410401 z" />
  <rect style="fill:#0000ff;stroke-width:2.4" width="2.5" height="12" x="11.75" y="6.5" />
</svg>
